<svg xmlns="http://www.w3.org/2000/svg" viewBox="0 0 1489.62 397.23"><defs><style>.cls-1{fill:#0d4775;}</style></defs><g id="Layer_2" data-name="Layer 2"><g id="Layer_1-2" data-name="Layer 1"><path class="cls-1" d="M0,310.41V300.19Q0,172.83,0,45.46C0,21.25,11.71,9.29,35.76,9.57c30.15.35,60.44-.47,90.4,2.23,35.59,3.21,61.47,25.73,68.37,57,6.48,29.34,0,55.51-23.11,76.24-1.87,1.67-3.71,3.38-5.49,5.15-.39.39-.45,1.12-.66,1.7,6.64,4.68,13.85,8.74,19.83,14.15,36.1,32.71,30.15,97.55-11.28,126A100.54,100.54,0,0,1,119,310.12C79.82,311.12,40.56,310.41,0,310.41Zm57.69-50c19.93,0,39.13,1,58.2-.26,20.3-1.32,33-16.94,33.73-38.54.77-23.44-10.28-39.89-30.9-42.7-14.53-2-29.45-1.73-44.17-1.36-10,.26-16.27,6-16.62,15.92C57.16,215.42,57.69,237.36,57.69,260.46ZM56.46,100.83h.42c0,8.16-.35,16.35.22,24.47.16,2.29,3,6.27,4.61,6.28,16.6.13,33.36.91,49.76-1.1,18.22-2.23,28.52-18.51,27.26-39-1.17-19.27-12.35-31.85-30.62-33.19a276.32,276.32,0,0,0-32.94-.09c-10.35.48-16.18,6-17.39,16.32C56.76,83.23,56.86,92.06,56.46,100.83Z"/><path class="cls-1" d="M1426.81,292.71c-10.23,4.17-20.19,10-30.91,12.29-57.57,12.22-108.45-23.84-117.62-82.74-5.13-32.93-2.2-64.68,16.55-93.31,28.25-43.11,92.09-54.31,133.37-23.73,1.76,1.3,3.56,2.53,5.33,3.78C1447,92.87,1458.39,89.71,1489,93.9c.2,3.43.6,7.08.59,10.72,0,61.93-.95,123.88,0,185.8,1.13,72.64-50.59,100.7-97.39,105.82-31.51,3.45-61.23-2.26-89.76-15.43-2-.92-3.89-2-5.78-3.14-.5-.29-.78-.94-1.92-2.39,4.46-10.66,8.63-22.13,14-33,4.54-9.24,11.68-10.34,24.5-7.4a323.62,323.62,0,0,0,40.58,7c7.61.75,15.78-.56,23.24-2.6C1419.17,333.27,1431.32,313.32,1426.81,292.71Zm3.21-96.45c-1.25-7.25-2-16.4-4.49-25-5.41-18.74-18.16-27.74-38.45-28.45-22.63-.8-36.3,7.05-43.39,25.69-7,18.33-6.71,36.92,0,55.27,7.94,21.82,24.39,31.58,48.81,29.43,18.39-1.61,31.08-14.69,35-36.34C1428.54,210.66,1429,204.39,1430,196.26Z"/><path class="cls-1" d="M927.44,94l-67.76,100L928,313.36c-22.71-1.2-44-.86-64.75-4.21-7.22-1.17-14.69-10.43-19.07-17.78-11.72-19.66-21.77-40.33-32.65-60.5-1.59-3-3.6-6.27-6.32-7.9-10.61-6.33-17.61-2.1-17.62,10.22,0,22.64-.44,45.29.2,67.91.26,9.35-2.94,11.82-11.81,11.4-14.12-.68-28.29-.32-42.44-.13-5.27.08-8-1.11-8-7.28q.22-145.74.15-291.47a13.58,13.58,0,0,1,.63-2.8c14.34,0,28.72-1.17,42.8.36,11.76,1.28,17.3,8.74,17.9,20.8.71,14.43.54,28.91.58,43.37.07,25.78-.15,51.57.17,77.34.06,4.88.52,11.28,3.51,14.2,3.9,3.8,19.16-1.29,23-6.19,1.35-1.72,2.45-3.64,3.65-5.49,11.79-18.19,23.75-36.28,35.25-54.65,3-4.85,6.42-6.79,12.14-6.7C885,94.16,904.8,94,927.44,94Z"/><path class="cls-1" d="M1107.05,118.24c2.84-2.24,4.59-3.41,6.09-4.83,25-23.81,54.91-29.17,87.46-21.66,29.89,6.89,45.16,27.82,50.36,56.87a147.66,147.66,0,0,1,2,25.31c.22,42.44-.16,84.89.37,127.32.12,9.11-3,11.5-11.25,10.81-7.5-.63-15.09-.05-22.61-.58-18.91-1.32-27.85-10.54-28-29.56-.3-30.49-.11-61-.15-91.48,0-4.4.07-8.81-.17-13.2-1.45-25.89-15-35.84-40.43-29.68-22.24,5.38-37.76,23.57-41,48.64a182.83,182.83,0,0,0-1.47,22.55c-.17,28-.25,56,0,83.94.07,6.78-1.71,9.61-9,9.39-14.45-.45-28.93-.42-43.38,0-7.1.2-9.16-2.6-9.15-9.39q.06-100.44-.38-200.89c0-6.29,2.25-8.45,8.25-8,4.69.32,9.43.13,14.14,0C1086.51,93.46,1102.54,96,1107.05,118.24Z"/><path class="cls-1" d="M587.46,315.17C521,315.1,473.67,268,473.8,202c.13-65.54,48.5-113.3,114.34-112.91,66.16.4,113.89,48,113.82,113.59S654.06,315.24,587.46,315.17Zm54.91-112.29c-.8-5.9-1.25-11.86-2.46-17.67-5.35-25.71-25.68-43.25-50.63-44-25.25-.72-46.26,15.23-52.69,41.1a88.81,88.81,0,0,0-2.42,26.09c2.3,39.87,36,64.05,71.74,52C627.79,253.11,641.75,230.8,642.37,202.88Z"/><path class="cls-1" d="M228,202.42c-.09-65.62,48-113.48,113.89-113.34s114.46,48.1,114.48,113.16c0,65.41-48,112.83-114.31,112.93C275.45,315.27,228,268.4,228,202.42Zm60.47-.13c0,2.82-.17,5.66,0,8.47,2,28.33,21.79,49.92,47.81,52.14,29,2.47,51.36-13.49,57.38-42.72a95.52,95.52,0,0,0,.63-32.62c-4.95-33.24-35.37-52.82-67.17-44.3C303.33,149.62,288.25,172.51,288.42,202.29Z"/><path class="cls-1" d="M948.34,94.52c13.26,0,25.53-.75,37.68.19,14.54,1.11,23.14,12.14,23.36,29.19.33,26.07.12,52.14.13,78.22,0,36.11,0,72.22,0,109.26H948.34Z"/><path class="cls-1" d="M1011.91,36.05c-.14,20.22-15.62,35.46-35.92,35.37A35.71,35.71,0,1,1,976.64,0C996.69.11,1012.05,15.81,1011.91,36.05Z"/></g></g></svg>