<svg xmlns="http://www.w3.org/2000/svg" viewBox="0 0 485.1 860"><defs><style>.cls-1{fill:#0d4775;}</style></defs><g id="Layer_2" data-name="Layer 2"><g id="Layer_1-2" data-name="Layer 1"><path class="cls-1" d="M345.18,585.68C228.87,579.57,129.31,538,56.44,444.13-16.07,350.76-17.86,217,49.57,116,110.41,25,234.4-20.32,343.41,8.75c140.26,37.4,189.26,213.28,88,317.11-20.46,21-43.37,39.52-64.43,59.93-27,26.17-41.3,57.08-28,94.9,14.06,39.87,46,56.61,85.59,61.29,11.3,1.33,22.88.11,34.31.51,7.26.26,18.14-4.47,20,6,1.64,9.37-9.47,11.22-16.32,14.22C425.24,579.06,386.05,586,345.18,585.68ZM162.51,211.76c-.77,46,33.64,80.25,81.59,81.25,54,1.12,102-43.14,102.77-94.75.66-44.54-36-80-83.11-80.4C210.65,117.41,163.36,161.27,162.51,211.76Z"/><path class="cls-1" d="M235.75,801.26c-2.2,4.82-7.13,7.22-11.2,6s-5.56-5.24-5.75-5.75V795.8A56.49,56.49,0,0,1,195.57,811c-22.48,7.48-55.32,1.47-62-18.6-6.61-19.86,2.71-38.15,23.68-46.09,12.24-4.63,25.14-4.48,38-5.07,6.34-.29,16.18,3.63,17.26-6.94.9-8.94-4-16.59-13.09-20.06-13.37-5.08-26.73-2.28-40.06.45-6.8,1.39-15.16,5.42-18.31-4.18-3.6-11,6.35-12.91,13.49-15.17,26.06-8.25,50.54-9.54,67.83,7.8C240.47,721.27,236.61,748.4,236,752Q235.9,776.66,235.75,801.26Zm-42.33-42.6c-27.89,2.61-30.63,3.24-33.53,6.45-5.25,5.82-5.35,13.88-5.38,14.44-.81,14.89,13,16.72,25.15,16.37,18.1-.53,34.34-12.87,34.54-25.61,0-.95.42-6.16-2.88-9.57S203.12,757.76,193.42,758.66Z"/><path class="cls-1" d="M23.09,761.26a38.55,38.55,0,0,0,9.6,22,37.57,37.57,0,0,0,13.14,9.14c17.58,7.71,35.73,1.05,40.8-1,7.87-6,17.62-3.68,20.48,1.61,2.09,3.88.76,9.83-3.44,14.27a70.63,70.63,0,0,1-11.51,5.76c-5,2-28.69,10.58-54-.07a60,60,0,0,1-19.41-12.47c-19-18.45-18.94-44-18.65-50.78.3-7,1.42-33,22.68-48.81,16.5-12.28,35.09-11,40.86-10.31,25.84,2.92,44,20.94,48.39,46.8,1.06,6.32,2.35,14.54-2.78,19.72-3.57,3.6-8.64,4.08-11.29,4.11ZM92.16,744a34.54,34.54,0,0,0-69.07,0Z"/><path class="cls-1" d="M427.23,785.87c12.08-29.39,22.41-55,33.2-80.45,3.17-7.47,5.54-18.58,17.49-13.36,3.48,1.52,5.38,3.39,6.25,5.47,2.63,6.25-2.71,14.67-3.89,16.52C473,725.61,452.62,775.68,423,852.78A10.44,10.44,0,1,1,403.7,845q5.4-18.85,10.81-37.73c-2.93-6.35-7.18-15.6-12.27-26.83-4.06-9-4.3-9-7.89-17.5-7.27-17.11-13.64-34.65-20.65-51.88-3.15-7.72-5.86-15.94,4.7-19.53,9-3.05,12.76,4.28,15.51,11.07C404.62,729,415.1,755.51,427.23,785.87Z"/><path class="cls-1" d="M304,816.21c-6.71-.29-17.15-2.61-27.12-6.84-6.5-2.76-15-5.18-11.82-14.64s10.83-6.85,17.89-4.16c11.57,4.4,23.58,6.22,35.85,4.17,7.41-1.24,14-4.71,15.37-12.89,1.59-9.68-6.43-11.69-13.14-13.91-11.53-3.83-23.53-6.38-34.74-10.94-14.58-5.94-22.83-16.83-21-33.58,1.77-16.14,10.95-26,26.06-30.64C307,688,322.6,690,338,694c6.91,1.83,15.27,4.36,12.65,13.83-2.22,8-9.92,6.58-16.4,5.32-9.85-1.9-19.69-4.19-29.78-1.9-7.78,1.77-16.44,3.46-17.5,13.11a15.89,15.89,0,0,0,1,6.88c2.6,6.54,18.91,9.05,32.32,13.68,10.74,3.71,28.39,9.66,34.14,24.31A31.31,31.31,0,0,1,356,785.64C353.05,804.7,334,817,304,816.21Z"/></g></g></svg>