<svg xmlns="http://www.w3.org/2000/svg" viewBox="0 0 1518.52 498.87"><defs><style>.cls-1{fill:#676767;}</style></defs><g id="Layer_2" data-name="Layer 2"><g id="Layer_1-2" data-name="Layer 1"><path class="cls-1" d="M368.7,175.7q-83.32.15-166.64,0c-4.48,0-6,1.46-5.91,6,.25,13.22.45,26.48-.06,39.69-.24,6.23,1.92,7.52,7.68,7.49,36.66-.22,73.33-.1,110-.09,8.61,0,8.89.15,7.37,8.8-5.28,30.17-19.48,54.76-44.95,72.55-27.22,19-57.52,25.14-90.09,22.88-33.62-2.33-62.73-15.14-86.42-38.87-32.53-32.58-45.89-72.38-40.49-118C69.4,89.77,152.52,34.89,236.09,58.91c19.3,5.55,36.18,15.4,51.32,28.45,1.78,1.54,3.3,4.51,6.33,1.37q15.78-16.41,31.76-32.64c2.49-2.53,2-4.33-.5-6.36-4.18-3.44-8.11-7.22-12.4-10.51-40.49-31-86.45-43.32-136.84-38C124.39,6.58,81.27,29.11,47.64,68.34,6.36,116.52-8.69,172.24,4.83,234.42c11.1,51.06,39.82,90.83,83.11,119.84a184,184,0,0,0,80.14,30.35,190.35,190.35,0,0,0,50.68,1.66c45.61-4.62,76.39-24.51,83.22-29.07A166,166,0,0,0,347.36,313c26.81-39,33.4-86.43,27.66-131.9C374.5,177,372.74,175.7,368.7,175.7Z"/><path class="cls-1" d="M789.27,137.49c-69.3,1-124.83,54.48-124.11,126.29.68,68.35,54.4,124.06,128,123.25C858,386.32,917.77,333.6,915,262.15,918,191.53,857.48,136.52,789.27,137.49Zm71.18,125.36c-1,28.91-12.2,52.36-38.26,66.61-30.71,16.77-67.11,6.34-86.35-19.76-15.21-20.63-18.81-43.47-13.23-67.36,10.06-43.1,53.2-64.48,90.15-51.55C840.39,200.45,861.48,230.07,860.45,262.85Z"/><path class="cls-1" d="M602,168.69c-.42-1.77-1.7-2.51-3.34-2.82a23.71,23.71,0,0,0-10.58-7.61l-1.45-1-.14-.15a46.66,46.66,0,0,0-17.95-9.21.75.75,0,0,0-.83-.29,59.78,59.78,0,0,0-25.15-7.36l-1.37-.19a94.28,94.28,0,0,0-44.34-.06l-1.27.2a21.74,21.74,0,0,0-11.42,2.56l-.28,0A35,35,0,0,0,468.75,148c-1.22.44-2.48.79-3.65,1.32-59.22,27.18-86.8,96.59-62.93,158.56C431,382.67,520.7,408.25,585.8,367.87c42-26,60.37-65.77,57.59-114.67C641.47,219.62,628,190.88,602,168.69ZM557.92,325c-40.17,28.27-94.35,7-106.44-41-1.75-7-3-14-2.8-20.45-.06-36.21,21.13-66.1,52-74.16,41.75-10.89,82.06,16.91,87.47,60.72C591.92,280.45,583.65,306.84,557.92,325Z"/><path class="cls-1" d="M1358.38,297.68c18.08-7.3,36.06-14.86,54.09-22.31q50.46-20.85,100.92-41.72c2.7-1.12,6.63-1.34,4.54-6.5-5.93-14.69-12.25-29.08-21.42-42.17-33.83-48.28-99-62-149-30.65-39.14,24.6-55,61.92-56.25,99-.11,38.16,8.63,65.19,25.7,87.25,49.42,63.84,150,61,197.84-5.51,1.75-2.43,2-3.85-.76-5.67-12.15-7.93-24.21-16-36.26-24.09-2.82-1.89-4.58-1.26-6.27,1.62-2.54,4.33-6.23,7.75-9.7,11.34-26.35,27.18-83.2,28.5-105.86-13C1353.68,301,1354,299.44,1358.38,297.68Zm-9.57-41.28c-8.69,3.55-2.77-4.42-4.59-5.88,2.25-44,45.25-74.79,85.07-61.17A44,44,0,0,1,1453,207.64c2.17,3.43,1.61,5-2.2,6.61C1416.75,228.23,1382.84,242.47,1348.81,256.4Z"/><path class="cls-1" d="M1259.39,12.83c-13.21.38-26.46.47-39.67-.08-6.47-.27-7.88,1.89-7.86,8,.21,58.54.13,117.08.13,175.63h-.06q0,88.14-.1,176.28c0,4.95,1,6.8,6.36,6.66q20.8-.56,41.63.06c5.75.18,7.25-1.48,7.23-7.24q-.29-118.71-.13-237.43c0-38.16-.12-76.33.18-114.48C1267.14,14.07,1265.14,12.66,1259.39,12.83Z"/><path class="cls-1" d="M1171.45,145.26c-14.53.18-29.06.16-43.6.05-3.39,0-4.51,1.22-4.54,4.57,0,4.8.8,9.71-.57,14.56-3.37-1-4.28-4.43-7.26-5v0l-1.39-1.25h0a5.09,5.09,0,0,0-3.71-2.82,3.1,3.1,0,0,0-2.87-2.27A80.48,80.48,0,0,0,1062.63,138c-39.08-1.54-70.75,14-95.88,43.46-60.11,70.41-24.87,180.59,65.07,202.31,33,8,63.32,1.92,88.28-22.92.71-.71,1.34-1.79,3-1.11,0,9.79.86,19.77-.14,29.56-5.35,52.13-46.27,65.73-81.52,57.81-20.31-4.57-34.07-18.21-43.57-36.23-2.33-4.42-4.34-5.86-9.41-3.53-12.21,5.59-24.72,10.55-37.18,15.57-3.42,1.37-4.08,2.84-2.42,6.29,8.72,18.1,20.53,33.75,36.86,45.52,40.61,29.26,84.18,30.59,128.83,11.39,20.18-8.68,35.49-23.8,45-44.07,3.43-3.13,4.66-7.25,5.3-11.65a.58.58,0,0,0,.19-.72c1.44-.87,1.71-2.39,2.2-3.83a162.89,162.89,0,0,0,8.74-53q.16-110.29.14-220.58c0-.65-.05-1.3,0-2C1176.52,146.8,1175.29,145.22,1171.45,145.26Zm-80,184.4c-30.13,17.07-67.54,6.44-87.48-24-18.42-28.14-15.67-70.1,6.74-95.22,16.82-18.86,37.94-27.22,63.06-22,25.51,5.29,40.83,22.3,49.3,46.11a79.5,79.5,0,0,1,4.41,28.17C1126.76,291.05,1117.25,315.05,1091.47,329.66Z"/></g></g></svg>