<svg xmlns="http://www.w3.org/2000/svg" viewBox="0 0 1772.53 287.84"><defs><style>.cls-1{fill:#0d4775;}</style></defs><g id="Layer_2" data-name="Layer 2"><g id="Layer_1-2" data-name="Layer 1"><path class="cls-1" d="M913.21,286.72c61.92,0,103.18-40.13,103.18-107.86V5.61H948.66V176.15c0,31.52-11.32,47.15-35.08,47.15-22.92,0-32.74-16-32.74-47.15V5.61h-68.1V178.86C812.83,248.09,850.53,286.72,913.21,286.72Z"/><path class="cls-1" d="M1197.87,20.77C1179.16,7.58,1157,5.61,1127.8,5.61h-91.86V282.42h67.73V193.27h19.46c28.81,0,50.6-2,68.19-12.44,27.6-16.75,44-46.31,44-82.14C1235.29,64,1222.47,37.89,1197.87,20.77ZM1117,133.3h-12.44V67.54h17.87c30,0,44.43,9.36,44.43,32.27C1166.72,124.7,1150.44,133.3,1117,133.3Z"/><polygon class="cls-1" points="1609.85 128.25 1713.03 282.42 1772.53 282.42 1772.53 5.61 1704.89 5.61 1704.89 159.4 1603.21 5.61 1542.12 5.61 1542.12 282.42 1609.85 282.42 1609.85 128.25"/><path class="cls-1" d="M752.4,41.44C725.55,15,690.56.56,653.52.56c-39.29,0-73.62,13.66-100.84,40.51s-42.1,61.93-42.1,100.09c0,40.88,13.28,75.12,39.29,102.81,27.22,28.81,62.3,43.59,103.18,43.59a140.17,140.17,0,0,0,102-43.22c26.1-26.84,40.13-62.3,40.13-102C795.24,104.49,780.46,69,752.4,41.44ZM653.15,219c-38.17,0-72.78-33.49-72.78-77.08,0-40.51,32.27-72.78,73.62-72.78,38.91,0,71.28,32.27,71.28,72.78C725.18,187,692.9,219,653.15,219Z"/><path class="cls-1" d="M1486,41.44A140,140,0,0,0,1387.12.56c-39.39,0-73.63,13.66-100.85,40.51s-42.09,61.93-42.09,100.09c0,40.88,13.28,75.12,39.29,102.81,27.31,28.81,62.3,43.59,103.18,43.59,38.54,0,75.12-15.15,102-43.22,26.1-26.84,40.14-62.3,40.14-102C1528.84,104.49,1514.06,69,1486,41.44ZM1386.74,219c-38.17,0-72.78-33.49-72.78-77.08,0-40.51,32.37-72.78,73.62-72.78,38.92,0,71.29,32.27,71.29,72.78C1458.77,187,1426.41,219,1386.74,219Z"/><path class="cls-1" d="M39.2,243.88c27.22,28.81,61.92,44,102.8,44a143.5,143.5,0,0,0,118-61.92c16-23.39,23.76-49.86,23.76-81,0-5.8-.38-12.06-.75-18.33H125.26v55.29h79.05C190.65,206,167.73,219.27,142,219.27c-38.16,0-72.4-33.86-72.4-77.92,0-39.76,31.9-72.78,72.4-72.78,21.8,0,39.67,9,56.88,26.85H276C253.79,36.2,202,0,142.85,0,103.56,0,69.32,14,42,40.88S0,102.81,0,141C-.09,182,13.1,216.19,39.2,243.88Z"/><path class="cls-1" d="M437.43,187.37C476.72,176.43,500.1,143,500.1,98.22c0-34.23-12.81-60.33-37.42-77.45C444,7.58,421.8,5.61,392.62,5.61H300.75V282.42h67.73V193.27l52.95,89.15h83.72ZM381.77,133.3H368.58V67.54h18.71c29.93,0,44.34,9.36,44.34,32.27C431.63,124.7,415.26,133.3,381.77,133.3Z"/></g></g></svg>