<svg xmlns="http://www.w3.org/2000/svg" viewBox="0 0 1039.32 604.1"><defs><style>.cls-1{fill:#0d4775;}</style></defs><g id="Layer_2" data-name="Layer 2"><g id="Layer_1-2" data-name="Layer 1"><path class="cls-1" d="M0,428.91v-7.44q33.39,1.39,53.56,1.39,11.61,0,21.69-.25,13.35-.51,18.52-.51,24.58,0,37.06,11.6t12.35,31.64a46.79,46.79,0,0,1-21.82,41q-7.68,5-21.94,8.95l42,54.69q7.82,10.21,9.83,12a27.73,27.73,0,0,0,8.19,4.54q7.06,2.77,23.83,6.43v7.43q-19.92-1.38-29-1.38a171.52,171.52,0,0,0-21.43,1.38q-5.67-9.45-15.37-23.76t-11.85-16.95c-.84-1-1.64-2.06-2.39-3.15L75.5,518.4q-11.22-.25-22.69-1.64l1,63.52A8.14,8.14,0,0,0,56.09,586q3,2.52,18.9,5.42c1.52.26,3.83.76,6.93,1.52v7.43q-22.82-1.38-40.2-1.38-18.66,0-41.72,1.38v-7.43l5.42-1.14q18-3.4,20.48-5.61c1.64-1.47,2.58-4.09,2.84-7.87q.24-3.66.63-64.79l-.51-59.24q-.12-13.61-.69-15.63a4.78,4.78,0,0,0-2.46-3q-6.18-3.27-19.53-5.42Q4.16,429.8,0,428.91ZM52.81,506q13.11,1.4,20.29,1.39,23,0,34-10.22t11-28.41q0-15.92-9.77-25.13t-28.42-9.22q-6.69,0-26.35,1.52Z"/><path class="cls-1" d="M238.21,500.37h30.5q17.66,0,20.8-.94a9.25,9.25,0,0,0,5.11-3.85q2-2.9,4.85-16.76c.25-.92.63-2.35,1.13-4.28h8.32q-1.38,20.79-1.38,32,0,11.59,1.38,31.76H300.6q-3.66-18.27-4.53-20.42a8,8,0,0,0-4.42-4.35q-3.15-1.32-18.78-1.32H238.34l.63,74.11h52.81l4.66-.12q10.85,0,13.62-.89a20.77,20.77,0,0,0,8.44-5.48Q322.16,576,332,558.1q1-1.77,3-5.17h8.7q-1.51,4-15.63,47.39-45.88-1.38-83.82-1.38-26.46,0-58.48,1.38v-7.43l20.42-4.41c3.28-.93,5.29-1.85,6.05-2.78q1.89-2.38,1.89-10v-2.27l.63-29.62q.12-8.58.13-33.66,0-36.42-.26-53.37t-1.26-19.22a5.91,5.91,0,0,0-2.33-2.46q-1.58-.94-11.66-3.22l-13.61-3v-7.44q23.7,1.39,56.59,1.39,18,0,85.71-1.39a364.45,364.45,0,0,0,3,43.11h-8.83q-5-17.15-8.19-22.81a10.82,10.82,0,0,0-5.29-5.17Q304.63,435,290.39,435H239.47l-.88,40.58Z"/><path class="cls-1" d="M473,469.62h-9.58Q460.17,453.43,456,446a28.54,28.54,0,0,0-12.67-11.7A42.27,42.27,0,0,0,424.25,430q-15,0-23.89,8.33a26.65,26.65,0,0,0-8.88,20.19,25.93,25.93,0,0,0,7.3,18.29q7.19,7.83,35.12,19.77t38,24.68a46.17,46.17,0,0,1,9.94,28.91,50.71,50.71,0,0,1-7.5,26.76q-7.5,12.36-22.56,19.75a72.8,72.8,0,0,1-32.46,7.38,126.1,126.1,0,0,1-23.76-2.27A226.17,226.17,0,0,1,367,594q1.89-17.78,1.89-47.14h9.7q4.15,18.92,8.62,26.47a33.61,33.61,0,0,0,13.53,12.41,41.4,41.4,0,0,0,19.88,4.86,42.49,42.49,0,0,0,26.05-8.33Q457.91,574,457.9,559a32.48,32.48,0,0,0-8.07-21.7q-8.19-9.33-35.48-21.12t-36.48-22.63a37.91,37.91,0,0,1-9.2-25.57,45.61,45.61,0,0,1,7.43-24.75q7.44-11.76,21.87-18.63a68.86,68.86,0,0,1,29.93-6.87q18.66,0,45.13,8.95-.64,18.41-.63,22.18Q472.4,456.52,473,469.62Z"/><path class="cls-1" d="M667.34,444.07l-19.7,13.84c.63,1,1.29,2.16,2,3.37s1.28,2.34,1.89,3.58q9.32,18.79,9.32,47.3,0,22.71-7.31,41.43T632,582a56.58,56.58,0,0,1-32.64,9.71q-27.86,0-46.07-20.87T535,508.38a113.6,113.6,0,0,1,7-40.05q7-18.74,21.87-28.64a58.77,58.77,0,0,1,30.68-9.77q.24-6,.47-12-36.74,2.21-61,26.27-26.65,26.53-26.66,67.87,0,44.13,23.13,68.07t62.83,23.94q42.35,0,68.32-26.4t26-72Q687.67,467.09,667.34,444.07Z"/><path class="cls-1" d="M704.69,428.91v-7.44q33.39,1.39,53.56,1.39,11.6,0,21.68-.25,13.37-.51,18.53-.51,24.57,0,37,11.6t12.36,31.64a46.85,46.85,0,0,1-21.82,41q-7.69,5-21.94,8.95l42,54.69q7.81,10.21,9.83,12a27.92,27.92,0,0,0,8.2,4.54q7.07,2.77,23.83,6.43v7.43q-19.92-1.38-29-1.38a171.52,171.52,0,0,0-21.43,1.38q-5.67-9.45-15.38-23.76t-11.84-16.95q-1.26-1.51-2.4-3.15L780.18,518.4q-11.22-.25-22.68-1.64l1,63.52a8.23,8.23,0,0,0,2.27,5.67q3,2.52,18.91,5.42c1.51.26,3.82.76,6.93,1.52v7.43q-22.82-1.38-40.21-1.38-18.64,0-41.71,1.38v-7.43l5.41-1.14q18-3.4,20.49-5.61c1.63-1.47,2.58-4.09,2.83-7.87q.26-3.66.63-64.79l-.5-59.24q-.13-13.61-.69-15.63a4.78,4.78,0,0,0-2.46-3q-6.18-3.27-19.54-5.42Q708.85,429.8,704.69,428.91ZM757.5,506q13.1,1.4,20.29,1.39,22.94,0,34-10.22t11-28.41q0-15.92-9.76-25.13t-28.42-9.22q-6.69,0-26.35,1.52Z"/><path class="cls-1" d="M889.33,470.63h-9.7q2.39-21.93,4.28-49.16,55.79,1.39,79.6,1.39,19.77,0,72-1.39,1.64,28.11,3.78,49.16h-9.45q-5.91-23.07-7.67-27a11.19,11.19,0,0,0-5.1-5.67q-3.33-1.69-16.91-1.7H972.27q-1,33.52-1,82.93,0,45.89,1,62c.16,2.53.8,4.25,1.89,5.17q2.15,1.77,20.8,5.42c1.17.17,2.94.55,5.29,1.14v7.43q-25-1.38-44.49-1.38-18.54,0-37.94,1.38v-7.43c2.94-.76,5.17-1.26,6.68-1.52q17.26-2.89,19.91-4.91a6.1,6.1,0,0,0,1.71-2.84q.55-1.82.94-27.92.51-40.32.5-59.74,0-33.9-.5-59.74h-30l-5.42.13q-7.18,0-9.45,1.51c-2.35,1.43-4.46,4.45-6.3,9.07Q893.75,452.23,889.33,470.63Z"/><path class="cls-1" d="M634.77,201.59c-1.27,0-2.49,0-3.86,0-31.41.33-49.54.53-73.75,4.92-28.16,5.11-30.72,9.76-63.92,17.21a460.6,460.6,0,0,1-68.84,9.83c-30.84,2.06-56.62.55-103.26-2.31v74.14A63.16,63.16,0,0,0,324,324.24a65,65,0,0,0,15.71,26c17.18,17.17,39.35,18.42,44.83,18.57H594c1.14,0,2.87,0,5,0,4.41.69,7.43,3,9.78,4.92a35.1,35.1,0,0,1,4.91,4.92c9.15,11.62,7.38,36.88,7.38,36.88a117.67,117.67,0,0,1-12.29,44.25,356.59,356.59,0,0,0,41.79-24.59c38-26,44.76-41.6,46.71-46.71,3.16-8.25,4.92-17.21,4.92-19.67V204.06C677.51,202.89,662,201.77,634.77,201.59Z"/><path class="cls-1" d="M630.91,201.6c-31.41.33-49.54.53-73.75,4.92-28.16,5.11-30.72,9.76-63.92,17.21a460.6,460.6,0,0,1-68.84,9.83c-30.84,2.06-56.62.55-103.26-2.31v74.14A63.16,63.16,0,0,0,324,324.24a65,65,0,0,0,15.71,26c17.18,17.17,39.35,18.42,44.83,18.57H594c1.14,0,2.87,0,5,0,22.34.26,45.49.51,63.87,12.3,5.7,3.65,14.61,10.77,22.12,24.58a55.66,55.66,0,0,0,12.29-17.21c2.37-5.21,4.92-10.7,4.92-19.67V204.06c-24.7-1.17-40.23-2.29-67.44-2.47C633.5,201.58,632.28,201.59,630.91,201.6Z"/><path class="cls-1" d="M638.82,0H321.14V231.1h2.45a899.44,899.44,0,0,0,92.07-11.5l-35.52-15.54L417,196.68,382.6,172.1l39.34-2.46-27.05-27,39.34,9.83-22.13-41.8,39.34,22.13q-6.15-22.12-12.29-44.25l34.42,27-2.46-39.33q12.28,16,24.58,32L508,68.84q7.37,19.66,14.75,39.34Q532.56,91,542.41,73.76q1.23,19.67,2.45,39.33l32-27L567,125.39l34.42-19.67q-4.92,17.2-9.83,34.42L626,132.76q-9.84,13.53-19.67,27.05l36.88,4.91-30.32,13c23.71-2.59,54.32-5,89.32-5.58V63.4A63.39,63.39,0,0,0,638.82,0Z"/></g></g></svg>