<svg xmlns="http://www.w3.org/2000/svg" viewBox="0 0 1510.19 295.61"><defs><style>.cls-1{fill:#95b7db;}.cls-2{fill:#0d4775;}.cls-3{fill:#fff;}.cls-4{fill:#0b4875;}</style></defs><g id="Layer_2" data-name="Layer 2"><g id="Layer_1-2" data-name="Layer 1"><path class="cls-1" d="M1442.09,162.54c.87,71-50,118.17-59.12,126.36A300.44,300.44,0,0,0,1179.53,292c-9.44-9.07-58.52-58-56.19-129.45C1125.9,84,1189.74,0,1282.72,0,1375,0,1441.12,82.68,1442.09,162.54Z"/><path class="cls-2" d="M1050.87,283.9c13.35-6.55,33.31-16.36,50.85-36.52a131.51,131.51,0,0,0,26.36-48.21h6.06L1164,228l38.47-41.75h6.06l16.11,17.38,18.72-23.35h6.06l24.34,18,52.63-70.56,5.23,2.31,63.28,86.65,15.37-13.33h6.06c1.65,2.88,21.55,31.86,34.46,49.58,5,6.81,11.1,10,13,11.48a148,148,0,0,0,46.35,24.45c-5.45-.26-13.77-.57-23.9-.64-20.18-.13-27.91,1.18-48.27,1.48-18.56.27-37.14.4-55.69-.1-12.94-.35-25.83-2.3-38.77-2.63-5.43-.14-11.64.78-16.23,3.46-8.19,4.78-16.24,4.35-24.8,2.89-18.85-3.21-37.87-6.3-56.84-2.28-10.19,2.16-20,2.37-30.36,2.08-16.23-.44-32.51,2.52-48.78,2.53-23.18,0-46.36-1.36-69.55-2.05-2.86-.08-1.63,0-16.06.13-23.44.18-42.33.26-54.77.31A194.5,194.5,0,0,0,1050.87,283.9Z"/><path class="cls-3" d="M1455.12,271.8a37.15,37.15,0,0,1-9.43-4.91,35.47,35.47,0,0,1-8.73-9.37c-7.52-11.37-15.25-22.58-22.9-33.86-1.49-2.2-3-4.37-4.69-6.79q-8,17.3-15.94,34.58.12-8,.26-16.07L1373,276.69q5.85-19.85,11.68-39.69l1.41-6.16c-13.15,10.74-19.65,26.72-30.18,39.69,5.22-13.59,10.13-27.31,15.77-40.72,3.52-8.38,2.86-14.94-2.79-22.5-14.2-19-27.44-38.72-41.65-59l-6.2,10.17,7.14,18.87-7.73-4.24q-1.21,5.91-2.41,11.83l13.76,17.59-26.2,38,7.62-31-11,15.24-1.18-.58,4.44-28.39L1288.81,225,1269,234l25.35-53.28-31.48,38.6q.81-6.73,1.63-13.46l-18.77-16.19-22.43,18.35c19.66,23.13,43.18,41,69.43,55.37-39.57-8.71-65-37.73-91.28-66.55l-14,13,12.63-.7-8.39,16.33,8.18-7.83c1.89,7.26,1.69,12.78-2.11,18.56-7.9,12-7.63,12.18.73,23.93,3.86,5.43,7.68,10.88,10.56,17.67-4.92-3.13-10.43-5.59-14.66-9.5-11.54-10.66-23.33-11.8-36.92-4.08-6.84,3.9-14.7,5.93-24,9.52l44.22-45.4-5.45-4.73-16.73,15.17-25.4-29.57L1119.8,227.5l8.33-5.32c4.27,9.11,3.72,17.51-1.68,25.28-5.52,7.93-10.72,16.13-16.74,23.64a18.49,18.49,0,0,1-9.89,6.08c-6.56,1.39-13.41,1.38-20.41,1.42,10.56-5.34,23.22-7.81,26.22-20l-54.22,25.15c35.93-18.12,56.5-50.61,76.67-84.55L1157.94,228l44.53-41.75,16.1,17.38,24.79-23.35,24.34,18c19.52-23.48,38.75-46.59,58.69-70.56,20.92,29.81,41.46,59.07,62.45,89l21.43-13.33c2.3,3.51,20.52,31.18,34.46,49.58a81.49,81.49,0,0,0,12.42,13.41,79.23,79.23,0,0,0,15.48,10.36A107.89,107.89,0,0,1,1455.12,271.8Z"/><path class="cls-2" d="M0,61.31l12.11-1.46c.89,3.89,2.55,16.06,6.5,46.23,12.75-3.73,14.92-10.22,14.92-21.9,0-6.49-1.53-15.74-3.44-22.87l12-1.46a115.2,115.2,0,0,1,2.68,22.22c0,15.25-3.57,29.2-25.12,34.39.26,1.62,1.66,13.14,2.43,18.49A80.2,80.2,0,0,0,36,132.35c15.81-4.38,25.37-13,25.37-40.55A118.1,118.1,0,0,0,57,61.31L69.22,60a130.59,130.59,0,0,1,3.06,28.55c.13,39.74-18.23,53.2-38.11,57.91-8,1.78-15.94,3.08-20.27,3.56C11.22,128.62,3.7,74.61,0,61.31Z"/><path class="cls-2" d="M86.57,135c3.06-.65,11.6-.65,19.38-.81h27.41v-29c-.13-17.84-4.47-24.65-20.27-28.06-5.74-1.3-10.84-2.27-14.16-2.92-2,5-3.56,9.57-3.56,13.3,0,5.84,3.06,9.74,12.36,11.68l-2.55,14c-14.15-2.27-19-10.7-19-22.55,0-10,5.73-22.54,8.41-31.79,2,.65,9.05,2.11,19.76,4.06C133.48,66,143.3,73.8,143.17,102v33.09c0,1.79-1.27,11.52-1.65,13.79H101.74c-6.37,0-14.41,0-17.34.49Z"/><path class="cls-2" d="M170.46,98.13c0-13.95-1.27-19-11.22-22.06-4.46-1.46-6.88-2.11-8.67-3.08l2.17-14.28a39.91,39.91,0,0,0,8.8,2.6c14.28,3.89,18.87,9.89,18.87,34.55v53h-9.95Z"/><path class="cls-2" d="M194.43,134.79c3.19-.49,7.27-.65,15.68-.65H219V98c0-14.12-1.28-18-12.62-21.42A93.12,93.12,0,0,1,195.32,73l2.17-14.28a65.61,65.61,0,0,0,11,3.24C223.24,65.85,229,71.36,229,95.21v39.41l-2.17,14.28H209.09c-5.48,0-14.27.16-16.82.49Z"/><path class="cls-2" d="M269.53,135c1.91-.49,3.7-.81,10.45-.81h1.91c-.12-15.74-1.14-48.34-2-58.72h-.38c-2.29,0-7.65-.16-9.69-1.14L272.08,60c3.95,1,12.24.65,20,.65H313c18.74,0,22.31,5.67,22.31,33.41V148.9h-9.94V98.62c0-16.06-1.41-23.2-13.26-23.2H289.67c.64,10.38,2,47.53,1.91,58.88l-1.78,14.6H279.73a87.26,87.26,0,0,0-12.62.65Z"/><path class="cls-2" d="M369,98.13c0-13.95-1.27-19-11.22-22.06-4.46-1.46-6.88-2.11-8.67-3.08l2.17-14.28a39.91,39.91,0,0,0,8.8,2.6c14.28,3.89,18.87,9.89,18.87,34.55v53H369Z"/><path class="cls-2" d="M390.9,74.45,393.07,60c2.55.65,9.05.65,17.72.65h37.48L446,75.42h-4.85c-3.82,0-5.22,3.41-5.22,15.08,0,19.47.63,42.5,1,58.4H427c-.13-10.54-.89-37.8-.89-55.48,0-11.19,1-14.92,2.68-18H405.05C397.53,75.42,392.69,75.09,390.9,74.45Z"/><path class="cls-2" d="M460.64,110.29c5.23-10.38,8-18.32,8-24.81,0-5.36-2.42-7.14-8.28-9.25A70.79,70.79,0,0,1,452.61,73l2.17-14.28a62.74,62.74,0,0,0,7.52,2.76c12.11,3.41,16.32,8.27,16.32,20.27,0,10.23-3.83,21.58-10.07,33.42Z"/><path class="cls-2" d="M497.1,97.8c0-10.87.39-19.3,1-22.54-2.29-.17-8.41-.65-9.3-.81L491,59.85c2.67.81,9.05.81,17.72.81h23.07C550.39,60.66,554,68,554,94.88v54H544V99.59c0-17.85-1.28-24.17-13.39-24.17H506.92V148.9H497.1Z"/><path class="cls-2" d="M571.82,110.29c5.22-10.38,8-18.32,8-24.81,0-5.36-2.42-7.14-8.29-9.25A69.74,69.74,0,0,1,563.79,73L566,58.71a63.66,63.66,0,0,0,7.53,2.76c12.11,3.41,16.31,8.27,16.31,20.27,0,10.23-3.82,21.58-10.07,33.42Z"/><path class="cls-2" d="M659.41,97.48v13H627.92v-13Z"/><path class="cls-2" d="M731.18,98.62c0-16.06-1.4-23.2-13.38-23.2H705.18c-7.52,0-12.37-.33-14.15-1L693.19,60c2.55.65,9.06.65,17.73.65h7.9c18.61,0,22.18,5.67,22.18,33.41V148.9h-9.82Z"/><path class="cls-2" d="M806.53,100.56c0-18-1.27-25.14-13.26-25.14H771.6c-7.52,0-12.87-.33-14.66-1L759.11,60c2.55.65,8.92.65,17.59.65h17.47c18.1,0,22.18,6.65,22.18,33.25v55h-9.82Zm-47,2h10V148.9h-10Z"/><path class="cls-2" d="M837.77,133.81c17-6.48,30.22-23.35,30.22-46.22,0-10.23-3.19-12.17-10-12.17H827.7V52.06c0-9.89-.38-21.74-1.78-25.79L836.24,24c.77,2.11,1.28,13.14,1.28,25.14V60.66h24.6c13,0,16.07,8.27,16.07,22.71,0,36.49-22.57,61.31-42.71,67Z"/><path class="cls-2" d="M916.57,92.94c0-10.87,6.37-23.52,9.3-34.23,2.55.81,7.91,1.95,16.07,3.57,20.78,3.89,29.19,9.25,29.19,41.36V180h-10V108.51c0-20.6-2-27.74-19-31.47-6.37-1.46-11.85-2.43-12.24-2.59-2,4.86-3.82,10.7-3.82,14.27,0,6.16,3.06,11.52,13,13.63l-2.68,15.24C923.2,115.48,916.57,107.21,916.57,92.94Z"/><path class="cls-2" d="M998.29,98.13c0-13.95-1.27-19-11.22-22.06-4.46-1.46-6.88-2.11-8.67-3.08l2.17-14.28a39.91,39.91,0,0,0,8.8,2.6c14.27,3.89,18.86,9.89,18.86,34.55v53h-9.94Z"/><path class="cls-2" d="M1022.26,134.79c3.19-.49,7.27-.65,15.68-.65h8.92V98c0-14.12-1.27-18-12.62-21.42A92.83,92.83,0,0,1,1023.15,73l2.17-14.28a65.71,65.71,0,0,0,11,3.24c14.79,3.9,20.53,9.41,20.53,33.26v39.41l-2.17,14.28h-17.72c-5.48,0-14.28.16-16.83.49Z"/><path class="cls-4" d="M1018.87,222.85H913.38c-1.73,0-3.13,1.89-3.13,4.22s1.4,4.22,3.13,4.22h105.49c1.73,0,3.14-1.89,3.14-4.22S1020.6,222.85,1018.87,222.85Z"/><path class="cls-4" d="M149.55,227.29H44.06c-1.73,0-3.14,1.89-3.14,4.22s1.41,4.22,3.14,4.22H149.55c1.73,0,3.13-1.89,3.13-4.22S151.28,227.29,149.55,227.29Z"/><polygon class="cls-4" points="208.83 193.58 199.61 235.29 190.48 193.58 183.17 193.58 176.35 253.38 183.66 253.38 187.99 215.61 196.28 253.38 202.9 253.38 211.27 215.61 215.49 253.38 222.75 253.38 216.14 193.58 208.83 193.58"/><path class="cls-4" d="M246.81,213.68c-4.18,0-7.67,2.3-10.37,6.83a29.48,29.48,0,0,0,.2,28.56c2.6,4.24,6,6.39,10.17,6.39s7.54-2.15,10.15-6.39a29.54,29.54,0,0,0,.2-28.59C254.46,216,251,213.68,246.81,213.68Zm0,7c2.31,0,4.27,1.3,6,4a18.38,18.38,0,0,1,2.69,10.15,20.6,20.6,0,0,1-1.23,7.19,12,12,0,0,1-3.21,5,6.15,6.15,0,0,1-8.48,0,12,12,0,0,1-3.21-5,20.56,20.56,0,0,1-1.23-7.19,18.54,18.54,0,0,1,2.67-10.15C242.51,221.94,244.48,220.64,246.8,220.64Z"/><path class="cls-4" d="M288.85,233.33c0,5.72-.25,8-.45,9a9.48,9.48,0,0,1-2.29,4.6,5,5,0,0,1-3.82,1.64,5.2,5.2,0,0,1-3.9-1.7,9.58,9.58,0,0,1-2.32-4.88,56,56,0,0,1-.43-8.63V214.65h-5.23v19.23c0,5.52.41,9.56,1.25,12.36A14.58,14.58,0,0,0,275.6,253,10.23,10.23,0,0,0,289,253a14.71,14.71,0,0,0,3.91-6.67c.84-2.77,1.25-6.72,1.25-12.07V214.65h-5.29Z"/><path class="cls-4" d="M324.52,216.11c-3.19-3.18-7.78-3.18-11.28-.29a14.93,14.93,0,0,0-2.62,2.9v-4.07H305.4v39.84h5.22v-14.9a75.23,75.23,0,0,1,.44-10,14.57,14.57,0,0,1,2.79-6.67,5.61,5.61,0,0,1,4.42-2.52,4.12,4.12,0,0,1,3.35,1.52A10.3,10.3,0,0,1,323.5,227a67.4,67.4,0,0,1,.34,8.49v19.05h5.22V234c0-5.28-.35-9.09-1.07-11.64A14,14,0,0,0,324.52,216.11Z"/><polygon class="cls-4" points="348.07 200.68 342.85 200.68 342.85 214.65 338.5 214.65 338.5 221.05 342.85 221.05 342.85 254.5 348.07 254.5 348.07 221.05 353.13 221.05 353.13 214.65 348.07 214.65 348.07 200.68"/><path class="cls-4" d="M383.65,218.83a14,14,0,0,0-2.72-3,9.64,9.64,0,0,0-6.13-2.19c-3.86,0-7.18,2.1-9.87,6.24A26.21,26.21,0,0,0,361,234.47a26.75,26.75,0,0,0,3.91,14.73c2.67,4.16,6,6.26,9.82,6.26a9.89,9.89,0,0,0,6-2.06,14.89,14.89,0,0,0,2.91-3v4.05h5.18V214.65h-5.18Zm-2.44,5.66a18.61,18.61,0,0,1,2.65,10.27,21,21,0,0,1-1.19,7.29,11.67,11.67,0,0,1-3.3,5c-2.76,2.37-5.86,2.4-8.55,0a12.82,12.82,0,0,1-3.31-5.2,21,21,0,0,1,0-14.37,12.57,12.57,0,0,1,3.28-5.13,6.31,6.31,0,0,1,4.28-1.74C377.49,220.57,379.5,221.85,381.21,224.49Z"/><path class="cls-4" d="M402.3,199.16a3.14,3.14,0,0,0-2.66,1.63,6.25,6.25,0,0,0-1,3.49,6.19,6.19,0,0,0,1,3.45,3,3,0,0,0,5.35,0,6.19,6.19,0,0,0,1-3.45,6.25,6.25,0,0,0-1-3.49A3.16,3.16,0,0,0,402.3,199.16Z"/><rect class="cls-4" x="399.7" y="214.65" width="5.22" height="39.85"/><path class="cls-4" d="M434.85,216.11c-3.19-3.18-7.79-3.18-11.29-.29a15.23,15.23,0,0,0-2.61,2.9v-4.07h-5.22v39.84H421v-14.9a75.23,75.23,0,0,1,.44-10,14.57,14.57,0,0,1,2.79-6.67,5.61,5.61,0,0,1,4.42-2.52,4.12,4.12,0,0,1,3.35,1.52,10.3,10.3,0,0,1,1.88,5.07,67.4,67.4,0,0,1,.34,8.49v19.05h5.22V234c0-5.28-.35-9.09-1.07-11.64A14,14,0,0,0,434.85,216.11Z"/><polygon class="cls-4" points="489.49 236.06 479.58 193.58 471.86 193.58 485.82 253.38 493.06 253.38 507.25 193.58 499.55 193.58 489.49 236.06"/><path class="cls-4" d="M520.73,199.16a3.14,3.14,0,0,0-2.67,1.63,6.25,6.25,0,0,0-1,3.49,6.19,6.19,0,0,0,1,3.45,3,3,0,0,0,5.35,0,6.19,6.19,0,0,0,1-3.45,6.25,6.25,0,0,0-1-3.49A3.16,3.16,0,0,0,520.73,199.16Z"/><rect class="cls-4" x="518.13" y="214.65" width="5.22" height="39.85"/><path class="cls-4" d="M560.57,234.94a29.22,29.22,0,0,0-2.87-13.4c-2.71-5.22-6.41-7.86-11-7.86s-8.09,2.59-10.71,7.69a30.41,30.41,0,0,0,.54,27.53c2.47,4.36,6,6.56,10.35,6.56a10.54,10.54,0,0,0,5.38-1.39,13.79,13.79,0,0,0,4.23-4,25.68,25.68,0,0,0,3.21-6.66l.26-.79-4.33-3.46-.51,1.28a22.75,22.75,0,0,1-2.56,5.07,8.73,8.73,0,0,1-2.73,2.37,6.48,6.48,0,0,1-3.22.88c-2.29,0-4.17-1.21-5.76-3.71a18.34,18.34,0,0,1-2.54-9h22.28Zm-21.73-5.28a16.46,16.46,0,0,1,2.41-6c1.56-2.12,3.36-3.15,5.49-3.15a6.18,6.18,0,0,1,3.66,1.25,9.27,9.27,0,0,1,2.9,3.35,17,17,0,0,1,1.5,4.53Z"/><polygon class="cls-4" points="595.68 239.38 588.47 214.65 586.41 214.65 579.26 239.33 572.39 214.65 566.98 214.65 578.2 254.5 580.28 254.5 587.47 230.07 594.65 254.5 596.73 254.5 608.14 214.65 602.69 214.65 595.68 239.38"/><polygon class="cls-4" points="654.94 236.06 645.02 193.58 637.31 193.58 651.27 253.38 658.5 253.38 672.7 193.58 665 193.58 654.94 236.06"/><path class="cls-4" d="M705.61,218.83a14.28,14.28,0,0,0-2.73-3,9.63,9.63,0,0,0-6.12-2.19c-3.86,0-7.18,2.1-9.88,6.24a26.21,26.21,0,0,0-4,14.55,26.83,26.83,0,0,0,3.91,14.73c2.68,4.16,6,6.26,9.82,6.26a9.89,9.89,0,0,0,6-2.06,15.16,15.16,0,0,0,2.91-3v4.05h5.17V214.65h-5.17Zm-2.45,5.66a18.61,18.61,0,0,1,2.65,10.27,21,21,0,0,1-1.19,7.29,11.75,11.75,0,0,1-3.29,5c-2.76,2.37-5.87,2.4-8.55,0a12.72,12.72,0,0,1-3.31-5.2,20.73,20.73,0,0,1-1.27-7.19,20.47,20.47,0,0,1,1.26-7.18,12.57,12.57,0,0,1,3.28-5.13,6.31,6.31,0,0,1,4.28-1.74C699.45,220.57,701.46,221.85,703.16,224.49Z"/><path class="cls-4" d="M743.81,242.73c-2.13,4.07-4.77,6.05-8,6.05A7.2,7.2,0,0,1,731,247a12.33,12.33,0,0,1-3.46-5.18,20.56,20.56,0,0,1-1.3-7.31,17.6,17.6,0,0,1,2.8-10.08c1.81-2.67,4-4,6.7-4,3.41,0,6,2,8,6l.61,1.21,4-3.82-.29-.74a17.25,17.25,0,0,0-2.91-5,13.56,13.56,0,0,0-4.2-3.22,11.54,11.54,0,0,0-5.17-1.24,11.81,11.81,0,0,0-7.7,2.85,18.58,18.58,0,0,0-5.3,7.77A29.15,29.15,0,0,0,721,234.88a25.19,25.19,0,0,0,4.07,14.47c2.77,4.06,6.33,6.11,10.57,6.11A12.16,12.16,0,0,0,743,253a16.49,16.49,0,0,0,5.11-6.74l.33-.74-4-4Z"/><path class="cls-4" d="M780.1,218.83a14.28,14.28,0,0,0-2.73-3,9.64,9.64,0,0,0-6.13-2.19c-3.85,0-7.17,2.1-9.87,6.24a26.21,26.21,0,0,0-4,14.55,26.83,26.83,0,0,0,3.91,14.73c2.68,4.16,6,6.26,9.82,6.26a9.89,9.89,0,0,0,6-2.06,15.16,15.16,0,0,0,2.91-3v4.05h5.17V214.65H780.1Zm-2.45,5.66a18.61,18.61,0,0,1,2.65,10.27,21,21,0,0,1-1.19,7.29,11.75,11.75,0,0,1-3.29,5c-2.76,2.37-5.87,2.4-8.55,0a12.72,12.72,0,0,1-3.31-5.2,20.73,20.73,0,0,1-1.27-7.19,20.47,20.47,0,0,1,1.26-7.18,12.47,12.47,0,0,1,3.28-5.13,6.31,6.31,0,0,1,4.28-1.74C773.94,220.57,776,221.85,777.65,224.49Z"/><polygon class="cls-4" points="804.63 200.68 799.41 200.68 799.41 214.65 795.05 214.65 795.05 221.05 799.41 221.05 799.41 254.5 804.63 254.5 804.63 221.05 809.69 221.05 809.69 214.65 804.63 214.65 804.63 200.68"/><path class="cls-4" d="M820.77,199.16a3.11,3.11,0,0,0-2.66,1.64,6.67,6.67,0,0,0,0,6.93,3,3,0,0,0,5.34,0,6.73,6.73,0,0,0,0-6.93A3.14,3.14,0,0,0,820.77,199.16Z"/><rect class="cls-4" x="818.17" y="214.65" width="5.22" height="39.85"/><path class="cls-4" d="M847,213.68c-4.18,0-7.67,2.3-10.37,6.83a29.48,29.48,0,0,0,.2,28.56c2.6,4.24,6,6.39,10.17,6.39s7.54-2.15,10.15-6.39a29.54,29.54,0,0,0,.2-28.59C854.6,216,851.12,213.68,847,213.68Zm0,7c2.3,0,4.27,1.3,6,4a18.4,18.4,0,0,1,2.69,10.15,20.6,20.6,0,0,1-1.23,7.19,12,12,0,0,1-3.21,5,6.15,6.15,0,0,1-8.48,0,12,12,0,0,1-3.21-5,20.6,20.6,0,0,1-1.23-7.19,18.54,18.54,0,0,1,2.67-10.15C842.65,221.94,844.62,220.64,846.94,220.64Z"/><path class="cls-4" d="M890.09,216.11c-3.19-3.18-7.8-3.17-11.29-.29a14.59,14.59,0,0,0-2.61,2.9v-4.07H871v39.84h5.23v-14.9a75.56,75.56,0,0,1,.43-10,14.48,14.48,0,0,1,2.8-6.67,5.59,5.59,0,0,1,4.41-2.52,4.12,4.12,0,0,1,3.35,1.52,10.3,10.3,0,0,1,1.88,5.07,65.56,65.56,0,0,1,.34,8.49v19.05h5.22V234c0-5.28-.35-9.09-1.07-11.64A14.2,14.2,0,0,0,890.09,216.11Z"/></g></g></svg>